<svg xmlns="http://www.w3.org/2000/svg" xmlns:svg="http://www.w3.org/2000/svg" id="svg8" width="512" height="700" version="1.1" viewBox="0 0 135.467 185.208"><metadata id="metadata5"/><g id="layer1" transform="translate(0,-111.79165)"><g id="g4746" transform="matrix(0.73504202,0,0,0.73940641,648.07767,-86.725921)"><path id="path4715" fill="#000" fill-opacity="1" stroke="none" stroke-dasharray="none" stroke-miterlimit="4" stroke-opacity="1" stroke-width="8.567" d="m -875.03414,294.85533 68.24244,-19.77795 h 17.18018 14.37799 l 71.04463,19.77795 0.15977,217.51444 h -170.15164 z"/><g id="g4721" fill="#fff" fill-opacity="1" stroke="#fff" stroke-opacity="1" transform="matrix(0.9308803,0,0,0.9308803,-887.18185,259.60119)"><path id="path4717" fill="#fff" fill-opacity="1" stroke="#fff" stroke-dasharray="none" stroke-miterlimit="4" stroke-opacity="1" stroke-width="5.935" d="m 104.04564,45.09026 6.48128,-2e-6 L 131.6946,169.71302 104.04564,197.16637 76.784151,170.27051 96.896184,45.09026 Z"/><path id="path4719" fill="#fff" fill-opacity="1" stroke="#fff" stroke-dasharray="none" stroke-miterlimit="4" stroke-opacity="1" stroke-width="4.583" d="m 92.101403,17.706465 h 23.227717 l 4.00478,6.54114 -5.62513,11.346871 H 94.184706 L 88.096625,24.247605 Z"/></g><text id="text4725" x="-831.188" y="488.324" fill="#000" fill-opacity="1" stroke="none" stroke-width="1.242" font-family="sans-serif" font-size="49.675" font-style="normal" font-weight="normal" letter-spacing="0" word-spacing="0" xml:space="preserve" style="line-height:1.25"><tspan id="tspan4723" x="-831.188" y="488.324" fill="#fff" stroke-width="1.242" font-family="sans-serif" font-stretch="normal" font-style="normal" font-variant="normal" font-weight="bold" style="-inkscape-font-specification:'sans-serif Bold'">\cv</tspan></text><path id="path4727" fill="none" stroke="#ff8900" stroke-dasharray="none" stroke-linecap="butt" stroke-linejoin="miter" stroke-miterlimit="4" stroke-opacity="1" stroke-width="5.292" d="m -816.52344,372.93522 h 30.99404"/><path id="path4729" fill="none" fill-opacity="1" stroke="#ff8900" stroke-dasharray="none" stroke-miterlimit="4" stroke-opacity="1" stroke-width="13.229" d="m -875.03414,294.85533 68.24244,-19.77795 h 17.18018 14.37799 l 71.04463,19.77795 0.15977,217.51444 h -170.15164 z"/><path id="path4735" fill="none" stroke="#ff8900" stroke-linecap="butt" stroke-linejoin="miter" stroke-opacity="0" stroke-width=".265" d="m -872.36773,453.61994 h 164.63804"/></g></g></svg>